<svg id="Capa_1" enable-background="new 0 0 510 510" height="512" viewBox="0 0 510 510" width="512" xmlns="http://www.w3.org/2000/svg"><g id="XMLID_48_"><path id="XMLID_215_" d="m412.004 438.326c-29.107-41.171-84.379-52.581-127.004-27.923l-15 49.799 15 49.798h225c0-17.31 0-53.712 0-63.934-30.129-19.29-67.106-21.222-97.996-7.74z" fill="#ece6f2"/><path id="XMLID_214_" d="m225 510c-15.192 0-209.806 0-225 0 0-17.31 0-53.712 0-63.934 30.074-19.254 67.039-21.251 97.996-7.74 29.177-41.269 84.459-52.534 127.004-27.923l15 49.799z" fill="#fff5f5"/><path id="XMLID_213_" d="m225 0v75l15 15 15-15 15-37.5-15-37.5c-10.492 0-19.508 0-30 0z" fill="#607da5"/><path id="XMLID_212_" d="m285 0c-10.492 0-19.508 0-30 0v75l15 15 15-15c0-20.194 0-63.236 0-75z" fill="#385c8e"/><path id="XMLID_1001_" d="m225 315v195h30l15-97.5-15-97.5-15-15z" fill="#607da5"/><path id="XMLID_1000_" d="m285 315-15-15-15 15v195h30c0-10.822 0-184.178 0-195z" fill="#385c8e"/><path id="XMLID_999_" d="m225 75v120l15 15 15-15 15-60-15-60c-10.492 0-19.508 0-30 0z" fill="#fd9"/><path id="XMLID_870_" d="m510 135c-12.117-16.155-37.942-50.589-45-60-11.664 0-198.336 0-210 0v120l15 15 30-15h165c12.117-16.155 37.942-50.589 45-60z" fill="#fb3"/><path id="XMLID_211_" d="m45 195c-12.117 16.155-37.942 50.589-45 60 12.117 16.156 37.942 50.589 45 60h210l15-60-15-60c-11.664 0-198.336 0-210 0z" fill="#ff884d"/><path id="XMLID_210_" d="m300 195c-14.981 0-30.019 0-45 0v120h45c0-14.518 0-105.386 0-120z" fill="#ff4d4d"/></g></svg>