<svg height="512pt" viewBox="0 -37 512 511" width="512pt" xmlns="http://www.w3.org/2000/svg"><path d="m295.117188 429.578125h-285.871094v-43.261719c0-16.640625 13.492187-30.132812 30.132812-30.132812h225.609375c16.640625 0 30.132813 13.492187 30.132813 30.132812v43.261719zm0 0" fill="#76ffd9"/><path d="m152.183594 381.164062c-15.128906 0-27.394532-12.261718-27.394532-27.390624v-35.125h54.789063v35.125c-.003906 15.128906-12.265625 27.390624-27.394531 27.390624zm0 0" fill="#fff"/><path d="m228.855469 201.90625h-153.339844c-33.914063 0-61.40625-27.492188-61.40625-61.402344v-22.96875c0-60.496094 49.042969-109.535156 109.535156-109.535156h57.078125c60.496094 0 109.535156 49.039062 109.535156 109.535156v22.96875c0 33.910156-27.492187 61.402344-61.402343 61.402344zm0 0" fill="#ffc843"/><path d="m290.257812 117.539062v22.964844c0 33.914063-27.492187 61.398438-61.40625 61.398438h-153.335937c-33.914063 0-61.40625-27.484375-61.40625-61.398438v-22.964844c0-1.996093.050781-3.976562.160156-5.945312 2.285157 31.832031 28.835938 56.945312 61.246094 56.945312h153.335937c32.410157 0 58.960938-25.113281 61.246094-56.945312.109375 1.96875.160156 3.949219.160156 5.945312zm0 0" fill="#f7a500"/><path d="m296.867188 208.226562c0 17.929688-14.535157 32.46875-32.464844 32.46875-17.929688 0-32.46875-14.539062-32.46875-32.46875 0-17.929687 14.539062-32.464843 32.46875-32.464843 17.929687 0 32.464844 14.535156 32.464844 32.464843zm0 0" fill="#fff"/><path d="m72.433594 208.226562c0 17.929688-14.535156 32.46875-32.464844 32.46875-17.933594 0-32.46875-14.539062-32.46875-32.46875 0-17.929687 14.535156-32.464843 32.46875-32.464843 17.929688 0 32.464844 14.535156 32.464844 32.464843zm0 0" fill="#fff"/><path d="m246.507812 263.660156 8.578126-151.546875c.753906-13.304687-9.835938-24.507812-23.164063-24.507812h-159.476563c-13.328124 0-23.914062 11.203125-23.164062 24.507812l8.578125 151.546875c2.125 37.53125 33.175781 66.875 70.765625 66.875h47.117188c37.589843 0 68.640624-29.34375 70.765624-66.875zm0 0" fill="#fff"/><path d="m41.640625 152.671875h96.910156c27.582031 0 49.941407-22.359375 49.941407-49.941406v-35.941407h-112.496094c-22.136719 0-40.078125 17.945313-40.078125 40.078126v40.078124c0 3.164063 2.5625 5.726563 5.722656 5.726563zm0 0" fill="#ffc843"/><path d="m262.726562 152.671875h-40.925781c-27.578125 0-49.9375-22.359375-49.9375-49.941406v-35.941407h56.507813c22.136718 0 40.078125 17.945313 40.078125 40.078126v40.078124c.003906 3.164063-2.558594 5.726563-5.722657 5.726563zm0 0" fill="#ffc843"/><path d="m158.0625 251.691406h-11.757812c-5.695313 0-10.066407-5.050781-9.25-10.6875l5.878906-40.570312c.667968-4.59375 4.605468-8.003906 9.25-8.003906 4.644531 0 8.585937 3.410156 9.25 8.003906l5.878906 40.570312c.816406 5.636719-3.554688 10.6875-9.25 10.6875zm0 0" fill="#ffc843"/><path d="m152.183594 289.460938c0 9.882812-8.011719 17.894531-17.894532 17.894531-9.882812 0-17.894531-8.011719-17.894531-17.894531 0-9.886719 8.011719-17.898438 17.894531-17.898438 9.882813 0 17.894532 8.011719 17.894532 17.898438zm0 0" fill="#ffc843"/><path d="m354.523438 121.4375c-6.074219 0-11-4.925781-11-11v-53.910156c0-22.34375 18.175781-40.519532 40.519531-40.519532s40.519531 18.175782 40.519531 40.519532c0 6.074218-4.925781 11-11 11s-11-4.925782-11-11c0-10.210938-8.308594-18.519532-18.519531-18.519532-10.210938 0-18.519531 8.308594-18.519531 18.519532v53.910156c0 6.074219-4.921876 11-11 11zm0 0" fill="#fff"/><path d="m417.832031 189.570312h-67.578125c-9.507812 0-17.21875-7.707031-17.21875-17.214843v-57.246094c0-9.507813 7.710938-17.21875 17.21875-17.21875h67.578125c9.507813 0 17.21875 7.710937 17.21875 17.21875v57.246094c0 9.507812-7.710937 17.214843-17.21875 17.214843zm0 0" fill="#76ffd9"/><path d="m264.988281 348.6875h-77.914062v-11.503906c13.640625-2.007813 26.652343-7.585938 37.492187-16.226563 3.238282-2.582031 3.773438-7.300781 1.191406-10.539062-2.582031-3.238281-7.300781-3.769531-10.539062-1.191407-11.332031 9.035157-24.984375 13.808594-39.476562 13.808594h-47.117188c-33.585938 0-61.378906-26.265625-63.277344-59.796875l-2.222656-39.277343c-.234375-4.136719-3.78125-7.308594-7.914062-7.066407-4.136719.234375-7.296876 3.777344-7.0625 7.914063l.386718 6.871094c-2.730468 1-5.601562 1.515624-8.570312 1.515624-13.765625-.003906-24.964844-11.203124-24.964844-24.96875 0-13.765624 11.199219-24.964843 24.96875-24.964843 1.996094 0 3.957031.253906 5.871094.714843l.355468 6.308594c.226563 3.992188 3.535157 7.074219 7.480469 7.074219.144531 0 .289063-.003906.433594-.011719 4.132813-.234375 7.296875-3.773437 7.0625-7.910156l-1.65625-29.265625h79.035156c15.820313 0 30.867188-6.589844 41.636719-17.910156 10.472656 11.019531 25.25 17.910156 41.617188 17.910156h23.050781l-5.835938 103.066406c-.414062 7.328125-2.074219 14.460938-4.933593 21.191407-1.621094 3.8125.15625 8.21875 3.96875 9.835937.957031.410156 1.949218.601563 2.929687.601563 2.917969 0 5.691406-1.714844 6.90625-4.570313 3.539063-8.328125 5.59375-17.148437 6.105469-26.210937l.964844-17.023438c3.082031.746094 6.257812 1.132812 9.441406 1.132812 22.039062 0 39.96875-17.929687 39.96875-39.96875 0-13.242187-6.476563-24.992187-16.425782-32.269531 6.433594-10.683593 9.816407-22.824219 9.816407-35.453125v-22.96875c0-31.328125-12.222657-60.765625-34.410157-82.886718-2.9375-2.921876-7.683593-2.917969-10.609374.019531-2.921876 2.933593-2.914063 7.679687.019531 10.605469 19.347656 19.285156 30 44.949218 30 72.261718v22.96875c0 10.382813-2.921875 20.34375-8.464844 28.996094-3.164063-.808594-6.480469-1.238281-9.890625-1.238281-1.683594 0-3.351562.113281-5 .320312l.476562-8.410156h2.847657c7.292969 0 13.226562-5.933594 13.226562-13.226563v-40.078124c0-4.140626-3.359375-7.5-7.5-7.5-4.144531 0-7.5 3.359374-7.5 7.5v38.304687h-39.148437c-23.402344 0-42.441406-19.039063-42.441406-42.441406 0-4.140625-3.359376-7.5-7.5-7.5-4.140626 0-7.5 3.359375-7.5 7.5 0 9.800781 2.472656 19.035156 6.820312 27.117187-8.03125 9.640625-20 15.324219-32.628906 15.324219h-95.140625v-38.304687c0-4.140626-3.359375-7.5-7.5-7.5-4.144531 0-7.5 3.359374-7.5 7.5v40.078124c0 7.292969 5.933593 13.226563 13.222656 13.226563h2.851563l.476562 8.40625c-1.652344-.207031-3.320312-.316406-5-.316406-3.414062 0-6.726562.429687-9.894531 1.242187-5.535157-8.65625-8.464844-18.652344-8.464844-29v-22.96875c0-56.261718 45.773437-102.035156 102.035156-102.035156h57.078125c16.011719 0 31.34375 3.609375 45.570313 10.722656 3.703125 1.855469 8.210937.351563 10.0625-3.351562 1.851562-3.707032.351562-8.210938-3.355469-10.0625-16.328125-8.167969-33.917969-12.308594-52.277344-12.308594h-57.078125c-64.53125 0-117.035156 52.5-117.035156 117.035156v22.96875c0 12.582032 3.394531 24.757813 9.820313 35.449219-9.949219 7.277344-16.429688 19.027344-16.429688 32.273437 0 22.039063 17.929688 39.96875 39.96875 39.96875 3.222656 0 6.375-.386718 9.441406-1.132812l.960938 17.023438c2.128906 37.625 30.628906 67.851562 66.917968 73.128906v11.472656h-77.910156c-20.75 0-37.632812 16.878906-37.632812 37.628906v43.261719c0 4.144531 3.359375 7.5 7.5 7.5 4.144531 0 7.5-3.355469 7.5-7.5v-43.261719c0-12.476562 10.152344-22.628906 22.632812-22.628906h79.355469c4.28125 14.425781 17.652344 24.976562 33.449219 24.976562s29.167968-10.554687 33.449218-24.976562h79.355469c12.480469 0 22.628907 10.152344 22.628907 22.628906v43.261719c0 4.144531 3.359374 7.5 7.5 7.5 4.144531 0 7.5-3.355469 7.5-7.5v-43.261719c0-20.75-16.878907-37.628906-37.628907-37.628906zm-.585937-165.425781c13.765625 0 24.964844 11.199219 24.964844 24.964843 0 13.765626-11.199219 24.964844-24.964844 24.964844-2.972656 0-5.84375-.507812-8.574219-1.507812l2.703125-47.726563c1.90625-.460937 3.871094-.695312 5.871094-.695312zm-112.21875 190.402343c-10.96875 0-19.894532-8.921874-19.894532-19.890624v-15.738282h39.789063v15.738282c-.003906 10.96875-8.925781 19.890624-19.894531 19.890624zm0 0" fill="#474d54"/><path d="m104.65625 215.765625h.023438.152343c4.140625-.015625 7.488281-3.382813 7.476563-7.527344-.011719-4.132812-3.371094-7.472656-7.5-7.472656-.007813 0-.019532 0-.023438 0h-.152344c-4.144531.011719-7.488281 3.378906-7.476562 7.523437.015625 4.132813 3.367188 7.476563 7.5 7.476563zm0 0" fill="#474d54"/><path d="m199.6875 200.761719h-.152344c-4.140625.015625-7.488281 3.382812-7.476562 7.523437.015625 4.136719 3.371094 7.476563 7.5 7.476563h.027344.148437c4.144531-.011719 7.492187-3.378907 7.476563-7.523438-.011719-4.132812-3.367188-7.476562-7.5-7.476562-.007813 0-.015626 0-.023438 0zm0 0" fill="#474d54"/><path d="m221.984375 186.933594c2.445313 0 4.84375-1.195313 6.28125-3.394532 2.269531-3.464843 1.300781-8.113281-2.164063-10.382812-17.222656-11.28125-36.96875-5.921875-37.800781-5.6875-3.988281 1.121094-6.3125 5.261719-5.195312 9.25 1.121093 3.988281 5.257812 6.3125 9.25 5.191406.136719-.039062 14.128906-3.667968 25.527343 3.796875 1.269532.828125 2.695313 1.226563 4.101563 1.226563zm0 0" fill="#474d54"/><path d="m112.046875 181.917969c3.976563 1.097656 8.097656-1.226563 9.214844-5.203125 1.121093-3.988282-1.207031-8.128906-5.195313-9.246094-.832031-.234375-20.578125-5.59375-37.800781 5.6875-3.464844 2.269531-4.433594 6.917969-2.164063 10.382812 1.4375 2.195313 3.835938 3.390626 6.28125 3.390626 1.410157 0 2.835938-.398438 4.101563-1.226563 11.34375-7.429687 25.246094-3.867187 25.5625-3.785156zm0 0" fill="#474d54"/><g fill="#c2c7d0"><path d="m256.085938 293.484375v15.753906c0 4.140625 3.359374 7.5 7.5 7.5 4.144531 0 7.5-3.359375 7.5-7.5v-15.753906c0-4.140625-3.355469-7.5-7.5-7.5-4.140626 0-7.5 3.359375-7.5 7.5zm0 0"/><path d="m276.164062 281.480469v39.761719c0 4.140624 3.355469 7.5 7.5 7.5 4.140626 0 7.5-3.359376 7.5-7.5v-39.761719c0-4.140625-3.359374-7.5-7.5-7.5-4.144531 0-7.5 3.359375-7.5 7.5zm0 0"/><path d="m303.738281 248.015625c-4.140625 0-7.5 3.359375-7.5 7.5v91.691406c0 4.140625 3.359375 7.5 7.5 7.5 4.144531 0 7.5-3.359375 7.5-7.5v-91.691406c0-4.144531-3.355469-7.5-7.5-7.5zm0 0"/><path d="m323.816406 232.59375c-4.144531 0-7.5 3.355469-7.5 7.5v122.535156c0 4.140625 3.355469 7.5 7.5 7.5 4.140625 0 7.5-3.359375 7.5-7.5v-122.535156c0-4.144531-3.359375-7.5-7.5-7.5zm0 0"/><path d="m343.890625 248.015625c-4.140625 0-7.5 3.359375-7.5 7.5v91.691406c0 4.140625 3.359375 7.5 7.5 7.5 4.144531 0 7.5-3.359375 7.5-7.5v-91.691406c0-4.144531-3.355469-7.5-7.5-7.5zm0 0"/><path d="m363.96875 273.980469c-4.144531 0-7.5 3.359375-7.5 7.5v39.761719c0 4.140624 3.355469 7.5 7.5 7.5 4.140625 0 7.5-3.359376 7.5-7.5v-39.761719c0-4.140625-3.359375-7.5-7.5-7.5zm0 0"/><path d="m384.042969 285.984375c-4.144531 0-7.5 3.359375-7.5 7.5v15.753906c0 4.140625 3.355469 7.5 7.5 7.5s7.5-3.359375 7.5-7.5v-15.753906c0-4.140625-3.355469-7.5-7.5-7.5zm0 0"/><path d="m404.117188 273.980469c-4.140626 0-7.5 3.359375-7.5 7.5v39.761719c0 4.140624 3.359374 7.5 7.5 7.5 4.144531 0 7.5-3.359376 7.5-7.5v-39.761719c0-4.140625-3.355469-7.5-7.5-7.5zm0 0"/><path d="m424.195312 248.015625c-4.144531 0-7.5 3.359375-7.5 7.5v91.691406c0 4.140625 3.355469 7.5 7.5 7.5 4.144532 0 7.5-3.359375 7.5-7.5v-91.691406c0-4.144531-3.355468-7.5-7.5-7.5zm0 0"/><path d="m444.269531 232.59375c-4.140625 0-7.5 3.355469-7.5 7.5v122.535156c0 4.140625 3.359375 7.5 7.5 7.5 4.144531 0 7.5-3.359375 7.5-7.5v-122.535156c0-4.144531-3.355469-7.5-7.5-7.5zm0 0"/><path d="m464.347656 248.015625c-4.144531 0-7.5 3.359375-7.5 7.5v91.691406c0 4.140625 3.355469 7.5 7.5 7.5 4.144532 0 7.5-3.359375 7.5-7.5v-91.691406c0-4.144531-3.359375-7.5-7.5-7.5zm0 0"/><path d="m484.425781 273.980469c-4.144531 0-7.5 3.359375-7.5 7.5v39.761719c0 4.140624 3.355469 7.5 7.5 7.5 4.140625 0 7.5-3.359376 7.5-7.5v-39.761719c0-4.140625-3.359375-7.5-7.5-7.5zm0 0"/><path d="m504.5 285.984375c-4.144531 0-7.5 3.359375-7.5 7.5v15.753906c0 4.140625 3.355469 7.5 7.5 7.5s7.5-3.359375 7.5-7.5v-15.753906c0-4.140625-3.355469-7.5-7.5-7.5zm0 0"/></g><path d="m442.550781 115.109375c0-13.628906-11.089843-24.71875-24.71875-24.71875h-44.808593v-33.863281c0-6.078125 4.945312-11.019532 11.019531-11.019532s11.019531 4.941407 11.019531 11.019532c0 10.199218 8.296875 18.5 18.5 18.5 10.199219 0 18.5-8.300782 18.5-18.5 0-26.476563-21.542969-48.019532-48.019531-48.019532-26.476563 0-48.019531 21.542969-48.019531 48.019532v38.390625c-6.335938 4.480469-10.488282 11.855469-10.488282 20.191406v57.246094c0 13.628906 11.089844 24.714843 24.722656 24.714843h67.574219c13.628907 0 24.71875-11.085937 24.71875-24.714843zm-58.507812-91.601563c18.207031 0 33.019531 14.8125 33.019531 33.019532 0 1.929687-1.570312 3.5-3.5 3.5s-3.5-1.570313-3.5-3.5c0-14.347656-11.671875-26.019532-26.019531-26.019532-14.347657 0-26.019531 11.671876-26.019531 26.019532v33.863281h-7v-33.863281c0-18.207032 14.8125-33.019532 33.019531-33.019532zm43.507812 148.847657c0 5.355469-4.359375 9.714843-9.71875 9.714843h-67.574219c-5.359374 0-9.722656-4.355468-9.722656-9.714843v-57.246094c0-5.359375 4.359375-9.71875 9.722656-9.71875h67.574219c5.355469 0 9.71875 4.359375 9.71875 9.71875zm0 0" fill="#474d54"/><path d="m384.042969 141.8125c-4.144531 0-7.5 3.359375-7.5 7.5v12.308594c0 4.140625 3.355469 7.5 7.5 7.5s7.5-3.359375 7.5-7.5v-12.308594c0-4.140625-3.355469-7.5-7.5-7.5zm0 0" fill="#fff"/><path d="m403.9375 240.65625c2.925781-2.929688 2.925781-7.675781-.003906-10.605469l-14.585938-14.585937c-1.40625-1.410156-3.316406-2.199219-5.304687-2.199219s-3.894531.789063-5.304688 2.199219l-14.585937 14.585937c-2.929688 2.929688-2.929688 7.679688 0 10.605469 2.925781 2.929688 7.675781 2.929688 10.605468 0l9.285157-9.285156 9.285156 9.285156c1.464844 1.464844 3.382813 2.199219 5.304687 2.199219 1.917969 0 3.839844-.734375 5.304688-2.199219zm0 0" fill="#c2c7d0"/></svg>